<svg width="16" height="16" viewBox="0 0 16 16" fill="none" xmlns="http://www.w3.org/2000/svg">
<g id="calendar-clear">
<path id="Vector" d="M15 4C15 3.46957 14.7893 2.96086 14.4142 2.58579C14.0391 2.21071 13.5304 2 13 2H12.5V1.51406C12.5 1.245 12.2931 1.01406 12.0241 1.00063C11.9565 0.997368 11.8889 1.00787 11.8255 1.0315C11.762 1.05512 11.7041 1.09138 11.6551 1.13807C11.6061 1.18476 11.5671 1.24091 11.5404 1.30313C11.5138 1.36534 11.5 1.43232 11.5 1.5V2H4.5V1.51406C4.5 1.245 4.29313 1.01406 4.02406 1.00063C3.95646 0.997368 3.8889 1.00787 3.82547 1.0315C3.76204 1.05512 3.70407 1.09138 3.65508 1.13807C3.60608 1.18476 3.56707 1.24091 3.54041 1.30313C3.51375 1.36534 3.50001 1.43232 3.5 1.5V2H3C2.46957 2 1.96086 2.21071 1.58579 2.58579C1.21071 2.96086 1 3.46957 1 4V4.375C1 4.40815 1.01317 4.43995 1.03661 4.46339C1.06005 4.48683 1.09185 4.5 1.125 4.5H14.875C14.9082 4.5 14.9399 4.48683 14.9634 4.46339C14.9868 4.43995 15 4.40815 15 4.375V4Z" fill="#B9B9B9"/>
<path id="Vector_2" d="M1 13C1 13.5304 1.21071 14.0391 1.58579 14.4142C1.96086 14.7892 2.46957 15 3 15H13C13.5304 15 14.0391 14.7892 14.4142 14.4142C14.7893 14.0391 15 13.5304 15 13V5.62495C15 5.5918 14.9868 5.56001 14.9634 5.53657C14.9399 5.51312 14.9082 5.49995 14.875 5.49995H1.125C1.09185 5.49995 1.06005 5.51312 1.03661 5.53657C1.01317 5.56001 1 5.5918 1 5.62495V13Z" fill="#54545E"/>
</g>
</svg>
