<svg width="32" height="32" viewBox="0 0 32 32" fill="none" xmlns="http://www.w3.org/2000/svg">
<path d="M29 4.1575C28.9921 3.33521 28.6604 2.54916 28.0768 1.96979C27.4933 1.39043 26.7048 1.06444 25.8825 1.0625L6.1025 1C5.28101 1.00016 4.49311 1.32606 3.91153 1.90623C3.32995 2.48641 3.00215 3.27352 3 4.095V24.5C3 26.2062 4.3925 27.5 6.1025 27.5H23L22.1875 24.75L29 31V4.1575ZM20.2906 20.6131C20.2906 20.6131 19.7456 19.9637 19.2906 19.4056C21.2744 18.8469 22.0312 17.625 22.0312 17.625C21.4864 17.9864 20.9025 18.2852 20.2906 18.5156C19.5841 18.809 18.8486 19.0266 18.0963 19.165C16.8 19.4031 15.4707 19.398 14.1763 19.15C13.4148 19.0086 12.6696 18.7908 11.9519 18.5C11.5722 18.3546 11.203 18.1831 10.8469 17.9869C10.8012 17.9569 10.7562 17.9419 10.7106 17.9112C10.68 17.8962 10.665 17.8813 10.6481 17.8813C10.3756 17.73 10.2244 17.6244 10.2244 17.6244C10.2244 17.6244 10.9506 18.8175 12.8731 19.3906C12.4187 19.9644 11.8588 20.6287 11.8588 20.6287C8.51438 20.5231 7.24312 18.3494 7.24312 18.3494C7.24312 13.5331 9.4225 9.62313 9.4225 9.62313C11.6019 8.0075 13.66 8.05313 13.66 8.05313L13.8112 8.23438C11.0869 9.00438 9.84625 10.1969 9.84625 10.1969C9.84625 10.1969 10.1788 10.0156 10.7388 9.77375C12.3581 9.06437 13.645 8.88312 14.1763 8.82312C14.261 8.8055 14.3472 8.79526 14.4338 8.7925C15.4479 8.66091 16.4741 8.65084 17.4906 8.7625C19.0867 8.94584 20.633 9.43271 22.0462 10.1969C22.0462 10.1969 20.8506 9.0625 18.2775 8.29375L18.4894 8.0525C18.4894 8.0525 20.5625 8.00688 22.7275 9.625C22.7275 9.625 24.9069 13.535 24.9069 18.3512C24.9069 18.3337 23.635 20.5075 20.2906 20.6131Z" fill="white"/>
<path d="M13.2531 13.625C12.3906 13.625 11.7094 14.365 11.7094 15.2856C11.7094 16.2063 12.4056 16.9463 13.2531 16.9463C14.1156 16.9463 14.7969 16.2069 14.7969 15.2856C14.8125 14.3631 14.1156 13.625 13.2531 13.625ZM18.7768 13.625C17.9143 13.625 17.2331 14.365 17.2331 15.2856C17.2331 16.2063 17.9293 16.9463 18.7768 16.9463C19.64 16.9463 20.3206 16.2069 20.3206 15.2856C20.3206 14.3644 19.625 13.625 18.7768 13.625Z" fill="white"/>
</svg>
