<svg width="15" height="17" viewBox="0 0 15 17" fill="none" xmlns="http://www.w3.org/2000/svg">
<g id="Group">
<g id="Group_2">
<path id="Vector" d="M8.14064 16.1502L10.1392 13.8999C10.327 13.667 10.6238 13.5431 10.9168 13.5431C13.0205 13.5431 14.726 11.8375 14.726 9.73382V4.30548C14.726 2.20551 13.0205 0.5 10.9168 0.5H3.80923C1.70551 0.5 0 2.20551 0 4.30923V9.73758C0 11.8413 1.70551 13.5468 3.80923 13.5468C4.10225 13.5468 4.39903 13.6745 4.58686 13.9037L6.58539 16.1539C7.00613 16.616 7.7199 16.616 8.14064 16.1502Z" fill="white"/>
</g>
<path id="Vector_2" d="M5.27436 8.49785C5.27436 9.12897 4.76346 9.63987 4.13234 9.63987C3.50123 9.63987 2.99033 9.12897 2.99033 8.49785C2.99033 7.86674 3.50123 7.35583 4.13234 7.35583C4.76346 7.35583 5.27436 7.86674 5.27436 8.49785ZM7.36306 7.35583C6.73194 7.35583 6.22104 7.86674 6.22104 8.49785C6.22104 9.12897 6.73194 9.63987 7.36306 9.63987C7.99417 9.63987 8.50507 9.12897 8.50507 8.49785C8.50507 7.86674 7.99417 7.35583 7.36306 7.35583ZM10.5938 7.35583C9.96265 7.35583 9.45175 7.86674 9.45175 8.49785C9.45175 9.12897 9.96265 9.63987 10.5938 9.63987C11.2249 9.63987 11.7358 9.12897 11.7358 8.49785C11.7358 7.86674 11.2249 7.35583 10.5938 7.35583Z" fill="#B9B9B9"/>
</g>
</svg>
