<svg width="48" height="48" viewBox="0 0 48 48" fill="none" xmlns="http://www.w3.org/2000/svg">
<path d="M35.154 26.3271V33.6423C35.1519 34.2669 34.8839 34.8654 34.4083 35.307C33.9327 35.7487 33.2881 35.9975 32.6155 35.9995H28.3849V31.9531C28.3665 31.5523 28.1784 31.1747 27.8613 30.9024C27.5444 30.63 27.1242 30.4853 26.6926 30.4995H23.308C22.8765 30.4853 22.4563 30.63 22.1393 30.9024C21.8222 31.1747 21.6341 31.5523 21.6158 31.9531V35.9995H17.3851C16.7125 35.9975 16.0679 35.7487 15.5923 35.307C15.1168 34.8654 14.8488 34.2669 14.8467 33.6423V26.3271C15.6609 26.8933 16.6266 27.2412 17.6389 27.3329C17.842 27.3487 18.0367 27.3564 18.2397 27.3564C19.4474 27.3533 20.6263 27.0139 21.6243 26.3822C22.6155 27.0204 23.794 27.3605 25.0003 27.3564C26.2072 27.3649 27.3861 27.0183 28.3678 26.3664C29.3603 27.0165 30.5465 27.3626 31.7609 27.3564C31.9639 27.3564 32.1587 27.3486 32.3617 27.3329C33.3741 27.2412 34.3397 26.8933 35.154 26.3271Z" fill="#54545E"/>
<path d="M35.8053 20.2495L34.6029 15.7852C34.4654 15.2752 34.1483 14.8223 33.702 14.4989C33.2557 14.1755 32.7059 13.9998 32.1397 14H17.8603C17.2941 13.9998 16.7443 14.1756 16.298 14.4989C15.8517 14.8224 15.5346 15.2752 15.3971 15.7852L14.1948 20.2495C14.0659 20.7312 14.0006 21.2255 14.0002 21.7219C13.9895 22.7126 14.3717 23.6721 15.0739 24.4178C15.7761 25.1637 16.7492 25.6436 17.8078 25.766C17.9518 25.7793 18.0955 25.7856 18.2385 25.7856C19.5698 25.7911 20.826 25.2146 21.6298 24.2291C22.4259 25.2126 23.6751 25.7897 25 25.7856C26.3355 25.7967 27.5909 25.1953 28.3549 24.1781C29.2375 25.3051 30.6997 25.9101 32.1922 25.766C33.2508 25.6435 34.2239 25.1637 34.9261 24.4178C35.6283 23.6721 36.0106 22.7126 35.9998 21.7218C35.9994 21.2255 35.9341 20.7312 35.8053 20.2495Z" fill="#54545E"/>
<path d="M23 33C23 32.4477 23.4477 32 24 32H26C26.5523 32 27 32.4477 27 33V36H23V33Z" fill="#B9B9B9"/>
</svg>
