<svg width="22" height="21" viewBox="0 0 22 21" fill="none" xmlns="http://www.w3.org/2000/svg">
<g id="notifications">
<path id="Vector" d="M18.7941 13.995C18.7261 13.913 18.6592 13.831 18.5936 13.7518C17.6912 12.6604 17.1453 12.0017 17.1453 8.91195C17.1453 7.31234 16.7626 5.99984 16.0084 5.01546C15.4522 4.28826 14.7004 3.7366 13.7094 3.3289C13.6967 3.32181 13.6853 3.3125 13.6758 3.30142C13.3194 2.10787 12.344 1.30847 11.244 1.30847C10.1439 1.30847 9.16901 2.10787 8.81258 3.30019C8.80307 3.31086 8.79184 3.31988 8.77936 3.32685C6.4669 4.27882 5.34307 6.10525 5.34307 8.91072C5.34307 12.0017 4.79797 12.6604 3.89481 13.7506C3.82918 13.8297 3.76233 13.9101 3.69424 13.9938C3.51837 14.2059 3.40694 14.4639 3.37314 14.7374C3.33934 15.0108 3.38458 15.2882 3.50352 15.5368C3.75659 16.07 4.29594 16.401 4.91159 16.401H17.5809C18.1937 16.401 18.7293 16.0704 18.9832 15.5397C19.1027 15.2911 19.1484 15.0134 19.1148 14.7397C19.0813 14.4659 18.97 14.2075 18.7941 13.995Z" fill="#54545E"/>
<path id="Vector_2" d="M11.244 19.6835C11.8367 19.683 12.4182 19.5221 12.9268 19.2179C13.4355 18.9137 13.8523 18.4774 14.1331 17.9555C14.1464 17.9305 14.1529 17.9025 14.1521 17.8742C14.1513 17.8459 14.1432 17.8183 14.1286 17.7941C14.114 17.7698 14.0933 17.7498 14.0687 17.7359C14.0441 17.722 14.0162 17.7147 13.9879 17.7147H8.50087C8.47253 17.7146 8.44466 17.7219 8.41996 17.7357C8.39525 17.7496 8.37457 17.7696 8.3599 17.7939C8.34524 17.8181 8.33711 17.8458 8.3363 17.8741C8.33548 17.9024 8.34202 17.9304 8.35526 17.9555C8.63603 18.4774 9.05279 18.9136 9.56137 19.2178C10.0699 19.522 10.6514 19.6829 11.244 19.6835Z" fill="#B9B9B9"/>
</g>
</svg>
