<svg width="16" height="15" viewBox="0 0 16 15" fill="none" xmlns="http://www.w3.org/2000/svg">
<path d="M13.4857 1.42554H15.6911C15.8596 1.42554 16.0001 1.56133 16.0001 1.73457V4.16471C16.0001 5.32125 15.6677 6.37946 15.1245 7.1661C14.689 7.79353 14.1225 8.24772 13.4763 8.44438C13.4857 8.32732 13.4904 8.21495 13.4904 8.09789V7.78885C13.9211 7.60624 14.3098 7.26443 14.6235 6.81492C15.0964 6.1313 15.3914 5.19483 15.3914 4.16471V2.03893H13.4857V1.42554Z" fill="url(#paint0_linear_1_5596)"/>
<path d="M2.4676 2.16861H0.613388V4.28971C0.613388 5.31046 0.899011 6.23757 1.36725 6.92119C1.6716 7.36602 2.04619 7.70315 2.4676 7.89512V8.09178C2.4676 8.2463 2.47228 8.4055 2.48633 8.55533C1.85421 8.34931 1.29233 7.89044 0.866235 7.26769C0.327765 6.48573 0 5.43689 0 4.28971V1.85957C0 1.69101 0.135788 1.55054 0.309035 1.55054H2.4676V2.16861Z" fill="url(#paint1_linear_1_5596)"/>
<g filter="url(#filter0_i_1_5596)">
<path d="M3.08225 0.282349H12.873C13.0416 0.282349 13.1821 0.418137 13.1821 0.591384V8.09719C13.1821 13.9454 2.77789 14.7742 2.77789 8.09719V0.591384C2.77789 0.418137 2.91368 0.282349 3.08225 0.282349Z" fill="url(#paint2_linear_1_5596)"/>
<path d="M10.5045 12.7418V14.7177H5.40546V12.9244C6.42153 13.3317 7.56402 13.4347 8.63628 13.2849C9.27776 13.1959 9.90988 13.0133 10.5045 12.7418Z" fill="#FEB4B8"/>
</g>
<defs>
<filter id="filter0_i_1_5596" x="2.77789" y="0.282349" width="10.4042" height="14.5489" filterUnits="userSpaceOnUse" color-interpolation-filters="sRGB">
<feFlood flood-opacity="0" result="BackgroundImageFix"/>
<feBlend mode="normal" in="SourceGraphic" in2="BackgroundImageFix" result="shape"/>
<feColorMatrix in="SourceAlpha" type="matrix" values="0 0 0 0 0 0 0 0 0 0 0 0 0 0 0 0 0 0 127 0" result="hardAlpha"/>
<feOffset dy="0.113526"/>
<feGaussianBlur stdDeviation="0.170289"/>
<feComposite in2="hardAlpha" operator="arithmetic" k2="-1" k3="1"/>
<feColorMatrix type="matrix" values="0 0 0 0 0.295295 0 0 0 0 0.443914 0 0 0 0 0.970833 0 0 0 0.84 0"/>
<feBlend mode="normal" in2="shape" result="effect1_innerShadow_1_5596"/>
</filter>
<linearGradient id="paint0_linear_1_5596" x1="13.369" y1="2.23183" x2="17.0589" y2="2.84012" gradientUnits="userSpaceOnUse">
<stop stop-color="#F00917"/>
<stop offset="1" stop-color="#F00917"/>
</linearGradient>
<linearGradient id="paint1_linear_1_5596" x1="-0.1057" y1="2.35522" x2="3.53189" y2="2.94717" gradientUnits="userSpaceOnUse">
<stop stop-color="#F00917"/>
<stop offset="1" stop-color="#F00917"/>
</linearGradient>
<linearGradient id="paint2_linear_1_5596" x1="2.33558" y1="1.72024" x2="15.979" y2="6.91954" gradientUnits="userSpaceOnUse">
<stop stop-color="#F00917"/>
<stop offset="1" stop-color="#F00917"/>
</linearGradient>
</defs>
</svg>
