<svg width="22" height="22" viewBox="0 0 22 22" fill="none" xmlns="http://www.w3.org/2000/svg">
<g id="person">
<path id="Vector" d="M13.8434 3.44878C13.0453 2.58704 11.9305 2.11249 10.7 2.11249C9.46296 2.11249 8.34446 2.58417 7.54999 3.44057C6.7469 4.30641 6.35562 5.48315 6.44749 6.75382C6.6296 9.26069 8.53724 11.3 10.7 11.3C12.8627 11.3 14.7671 9.2611 14.9521 6.75464C15.0452 5.49546 14.6514 4.32118 13.8434 3.44878Z" fill="#B9B9B9"/>
<path id="Vector_2" d="M17.9188 20.4875H3.48125C3.29228 20.4899 3.10513 20.4502 2.93343 20.3713C2.76173 20.2923 2.60979 20.1761 2.48867 20.031C2.22207 19.7123 2.11461 19.2771 2.19418 18.837C2.54035 16.9167 3.62071 15.3035 5.31875 14.1711C6.82731 13.1658 8.73823 12.6125 10.7 12.6125C12.6618 12.6125 14.5727 13.1662 16.0813 14.1711C17.7793 15.3031 18.8597 16.9163 19.2058 18.8366C19.2854 19.2767 19.1779 19.7119 18.9113 20.0306C18.7903 20.1757 18.6383 20.2921 18.4666 20.3711C18.2949 20.4501 18.1078 20.4899 17.9188 20.4875Z" fill="#54545E"/>
</g>
</svg>
