<svg width="16" height="17" viewBox="0 0 16 17" fill="none" xmlns="http://www.w3.org/2000/svg">
<path d="M12.4928 6.84375C12.4678 6.30938 12.3897 5.76562 12.1553 5.27812C12.0268 5.00839 11.8523 4.76307 11.6397 4.55312C11.4404 4.35573 11.2167 4.18456 10.974 4.04375C10.4397 3.725 9.80217 3.5125 8.33655 3.075C6.87092 2.6375 5.99998 2.5 5.99998 2.5V13.6969L8.49686 14.5C8.49686 14.5 8.49998 8.2875 8.49998 5.14062V5.02187C8.49998 4.73125 8.73436 4.49688 9.00311 4.49688H9.01873C9.28436 4.49688 9.50311 4.73125 9.50311 5.02187V9.1875C9.84686 9.35313 10.4156 9.47813 10.8094 9.47188C11.0706 9.47916 11.3293 9.41773 11.5594 9.29375C11.7968 9.16243 11.9952 8.97049 12.1344 8.7375C12.2896 8.4748 12.3945 8.18549 12.4437 7.88438C12.5022 7.54688 12.5053 7.19375 12.4928 6.84375ZM2.70842 11.6812C3.56467 11.375 5.49905 10.7594 5.49905 10.7594V9.28438C5.49905 9.28438 3.10842 10.0594 2.02092 10.4438C1.75217 10.5406 1.4803 10.6281 1.2178 10.7406C0.911547 10.8688 0.611547 11.0125 0.339672 11.2031C0.217699 11.2812 0.118516 11.39 0.0521717 11.5188C0.0210751 11.5849 0.00366165 11.6566 0.000976634 11.7297C-0.00170838 11.8027 0.0103904 11.8755 0.0365467 11.9438C0.0990467 12.1031 0.217797 12.2344 0.352172 12.3375C0.595922 12.5219 0.886547 12.6344 1.17717 12.7188C2.06746 13.0143 3.00184 13.1549 3.93967 13.1344C4.3928 13.1281 5.06467 13.075 5.50217 12.9969V11.6844C5.50217 11.6844 5.15842 11.7625 4.21155 12.075C4.0678 12.1219 3.92405 12.1781 3.77405 12.2094C3.55203 12.2556 3.32582 12.2786 3.09905 12.2781C2.89592 12.2688 2.68655 12.2562 2.49592 12.1812C2.42717 12.15 2.35217 12.1125 2.32405 12.0375C2.29905 11.975 2.33342 11.9125 2.37717 11.8687C2.46467 11.7781 2.58967 11.7281 2.70842 11.6812Z" fill="url(#paint0_linear_1_5634)"/>
<path d="M16 11.3094C15.9969 11.1219 15.8844 10.9594 15.7531 10.8406C15.5312 10.6437 15.2562 10.5187 14.9812 10.4187C14.8094 10.3594 14.6906 10.3156 14.5219 10.2625C13.7344 10.0062 12.9 9.91249 12.075 9.90936C11.825 9.91874 11.3531 9.92499 11.1062 9.95311C10.4219 10.0312 9.00313 10.4344 9.00313 10.4344V11.9594C9.00313 11.9594 11.1125 11.2844 12.0188 10.9656C12.3244 10.8665 12.6443 10.8179 12.9656 10.8219C13.1687 10.8281 13.3781 10.8437 13.5719 10.9187C13.6406 10.9469 13.7125 10.9875 13.7437 11.0594C13.7719 11.1406 13.7156 11.2156 13.6531 11.2625C13.5062 11.3812 13.3188 11.4281 13.1469 11.4937C11.8656 11.9469 9 12.8906 9 12.8906V14.3594C9 14.3594 12.6625 13.1219 14.3375 12.5219C14.6156 12.4187 14.8969 12.3312 15.1625 12.1969C15.4094 12.0719 15.6562 11.9281 15.8438 11.7187C15.9442 11.606 15.9998 11.4603 16 11.3094Z" fill="url(#paint1_linear_1_5634)"/>
<defs>
<linearGradient id="paint0_linear_1_5634" x1="0.000610488" y1="13.75" x2="12.54" y2="13.1138" gradientUnits="userSpaceOnUse">
<stop stop-color="#521DFF" stop-opacity="0.76"/>
<stop offset="1" stop-color="#705AB8"/>
</linearGradient>
<linearGradient id="paint1_linear_1_5634" x1="9" y1="14.0812" x2="16.0001" y2="13.5448" gradientUnits="userSpaceOnUse">
<stop stop-color="#521DFF" stop-opacity="0.76"/>
<stop offset="1" stop-color="#705AB8"/>
</linearGradient>
</defs>
</svg>
