<svg width="16" height="16" viewBox="0 0 16 16" fill="none" xmlns="http://www.w3.org/2000/svg">
<g id="Frame" clip-path="url(#clip0_1_5532)">
<path id="Vector" d="M8 5C4.9625 5 2.5 7.4625 2.5 10.5C2.5 13.5375 4.9625 16 8 16C11.0375 16 13.5 13.5375 13.5 10.5C13.5 7.4625 11.0375 5 8 5ZM10.8912 9.91438L9.70594 11.0694L9.98625 12.7013C10.0363 12.9938 9.72813 13.2172 9.46594 13.0791L8 12.3088L6.53438 13.0791C6.27188 13.2181 5.96406 12.9934 6.01406 12.7013L6.29438 11.0694L5.10906 9.91438C4.89594 9.70688 5.01375 9.34469 5.3075 9.30219L6.94594 9.06344L7.67813 7.57844C7.74406 7.44469 7.87156 7.37875 7.99938 7.37875C8.12781 7.37875 8.25625 7.44562 8.32219 7.57844L9.05437 9.06344L10.6928 9.30219C10.9866 9.34469 11.1044 9.70688 10.8912 9.91438Z" fill="url(#paint0_linear_1_5532)"/>
<path id="Vector_2" d="M6.99217 4.08594L4.83185 0.485625C4.74303 0.337519 4.61736 0.214943 4.46708 0.129839C4.31681 0.0447341 4.14705 2.12039e-06 3.97435 0H0.500915C0.0962274 0 -0.140648 0.455313 0.0912274 0.786875L3.56841 5.75437C4.49716 4.88656 5.67842 4.29094 6.99217 4.08594ZM15.499 0H12.0256C11.6744 0 11.3487 0.184375 11.1681 0.485625L9.00779 4.08594C10.3215 4.29094 11.5028 4.88656 12.4315 5.75406L15.9087 0.786875C16.1406 0.455313 15.9037 0 15.499 0Z" fill="#FEB4B8"/>
</g>
<defs>
<linearGradient id="paint0_linear_1_5532" x1="2.03236" y1="6.26363" x2="15.6827" y2="12.5219" gradientUnits="userSpaceOnUse">
<stop stop-color="#F00917"/>
<stop offset="1" stop-color="#F00917"/>
</linearGradient>
<clipPath id="clip0_1_5532">
<rect width="16" height="16" fill="white"/>
</clipPath>
</defs>
</svg>
