<svg width="16" height="17" viewBox="0 0 16 17" fill="none" xmlns="http://www.w3.org/2000/svg">
<path d="M4.75 8.5C5.99264 8.5 7 7.49264 7 6.25C7 5.00736 5.99264 4 4.75 4C3.50736 4 2.5 5.00736 2.5 6.25C2.5 7.49264 3.50736 8.5 4.75 8.5Z" fill="#D9CDFF"/>
<path d="M7.3125 9.75C6.4325 9.30312 5.46125 9.125 4.75 9.125C3.35687 9.125 0.5 9.97938 0.5 11.6875V13H5.1875V12.4978C5.1875 11.9041 5.4375 11.3087 5.875 10.8125C6.22406 10.4162 6.71281 10.0484 7.3125 9.75Z" fill="#705AB8"/>
<path d="M10.625 9.5C8.99781 9.5 5.75 10.505 5.75 12.5V14H15.5V12.5C15.5 10.505 12.2522 9.5 10.625 9.5Z" fill="#705AB8"/>
<path d="M10.625 8.5C12.1438 8.5 13.375 7.26878 13.375 5.75C13.375 4.23122 12.1438 3 10.625 3C9.10622 3 7.875 4.23122 7.875 5.75C7.875 7.26878 9.10622 8.5 10.625 8.5Z" fill="#D9CDFF"/>
</svg>
