<svg width="49" height="48" viewBox="0 0 49 48" fill="none" xmlns="http://www.w3.org/2000/svg">
<g id="Frame 63">
<g id="Group">
<path id="Vector" d="M35.2053 21.7824L31.2754 27.6772L30.907 34.8L26.6088 33.5719C27.714 32.8351 28.4509 31.607 28.4509 30.1333C28.4509 27.8 26.6088 25.9579 24.2754 25.9579C21.9421 25.9579 20.1 27.8 20.1 30.1333C20.1 31.4842 20.8368 32.8351 21.8193 33.5719L17.2754 34.8L16.907 27.6772L13.1 21.7824L19.7316 19.3263L24.1526 13.8L28.5737 19.3263L35.2053 21.7824Z" fill="#54545E"/>
<g id="Group_2">
<path id="Vector_2" d="M24.2755 33.2035C25.9033 33.2035 27.2228 31.8839 27.2228 30.2561C27.2228 28.6284 25.9033 27.3088 24.2755 27.3088C22.6477 27.3088 21.3281 28.6284 21.3281 30.2561C21.3281 31.8839 22.6477 33.2035 24.2755 33.2035Z" fill="#B9B9B9"/>
<path id="Vector_3" d="M24.2755 34.7999H22.8018C22.8018 33.9403 23.4158 33.3262 24.2755 33.3262C25.1351 33.3262 25.7492 33.9403 25.7492 34.7999H24.2755Z" fill="#B9B9B9"/>
</g>
</g>
</g>
</svg>
