<svg width="32" height="32" viewBox="0 0 32 32" fill="none" xmlns="http://www.w3.org/2000/svg">
<path d="M20.25 16C19.805 16 19.37 16.132 19 16.3792C18.63 16.6264 18.3416 16.9778 18.1713 17.389C18.001 17.8001 17.9564 18.2525 18.0432 18.689C18.1301 19.1254 18.3443 19.5263 18.659 19.841C18.9737 20.1557 19.3746 20.3699 19.811 20.4568C20.2475 20.5436 20.6999 20.499 21.111 20.3287C21.5222 20.1584 21.8736 19.87 22.1208 19.5C22.368 19.13 22.5 18.695 22.5 18.25C22.5 17.6533 22.2629 17.081 21.841 16.659C21.419 16.2371 20.8467 16 20.25 16Z" fill="white"/>
<path d="M12.6112 20.329C13.7593 19.8535 14.3045 18.5373 13.8289 17.3892C13.3534 16.2412 12.0372 15.696 10.8892 16.1716C9.7411 16.6471 9.19592 17.9633 9.67146 19.1113C10.147 20.2594 11.4632 20.8046 12.6112 20.329Z" fill="white"/>
<path d="M31 15.8606C31 13.9113 29.4288 12.3256 27.5 12.3256C26.6871 12.3256 25.8997 12.6099 25.2744 13.1294C23.0869 11.6438 20.2257 10.7344 17.1713 10.55L18.5463 5.6125L22.6969 6.4375C22.8157 8.0925 24.1969 9.40563 25.8625 9.40563C27.6125 9.40563 29.0363 7.96812 29.0363 6.205C29.0363 4.44187 27.5625 3 25.8125 3C24.5919 3 23.5432 3.69937 23.0094 4.79812L17.3844 3.68L15.4407 10.525L15.1513 10.5331C11.9869 10.6712 9.00504 11.5912 6.72816 13.1287C6.103 12.6074 5.31408 12.323 4.50003 12.3256C2.56941 12.3256 1.00003 13.9113 1.00003 15.8606C0.997279 16.4811 1.15826 17.0913 1.46673 17.6297C1.77519 18.168 2.22023 18.6155 2.75691 18.9269C2.71954 19.2032 2.70095 19.4818 2.70128 19.7606C2.70816 22.2444 4.10691 24.5731 6.63878 26.3231C9.14754 28.0481 12.4694 29 16 29C19.5307 29 22.86 28.0481 25.3644 26.3194C27.8975 24.5694 29.2925 22.24 29.2925 19.7531C29.292 19.4752 29.2744 19.1976 29.24 18.9219C29.777 18.6118 30.2226 18.1655 30.5317 17.6279C30.8407 17.0903 31.0023 16.4807 31 15.8606ZM25.875 4.6875C26.1717 4.6875 26.4617 4.77547 26.7084 4.9403C26.9551 5.10512 27.1473 5.33939 27.2609 5.61347C27.3744 5.88756 27.4041 6.18916 27.3462 6.48014C27.2883 6.77111 27.1455 7.03838 26.9357 7.24816C26.7259 7.45794 26.4586 7.6008 26.1677 7.65868C25.8767 7.71656 25.5751 7.68685 25.301 7.57332C25.0269 7.45979 24.7927 7.26753 24.6278 7.02086C24.463 6.77418 24.375 6.48417 24.375 6.1875C24.375 5.78968 24.5331 5.40814 24.8144 5.12684C25.0957 4.84554 25.4772 4.6875 25.875 4.6875ZM2.67003 15.8606C2.66821 15.3707 2.86077 14.9001 3.20547 14.552C3.55018 14.2039 4.01889 14.0067 4.50878 14.0037C4.80581 14.0044 5.09814 14.078 5.36003 14.2181C4.39128 15.1188 3.67691 16.1188 3.23066 17.1981C3.05373 17.0231 2.91312 16.8148 2.81691 16.5853C2.7207 16.3558 2.67079 16.1095 2.67003 15.8606ZM24.4263 24.9375C22.1925 26.4744 19.2013 27.3213 16.0032 27.3213C12.805 27.3213 9.81253 26.4756 7.58066 24.9375C5.51816 23.5131 4.37816 21.6712 4.37816 19.75C4.37931 19.1678 4.48407 18.5905 4.68753 18.045C5.04253 17.0612 5.69754 16.14 6.63441 15.3081C6.92712 15.0496 7.23518 14.8089 7.55691 14.5875L7.57566 14.5744L7.59066 14.5638C9.82316 13.0312 12.8107 12.1888 16.0038 12.1888C19.1969 12.1888 22.185 13.0331 24.4175 14.5638L24.4319 14.5744L24.4532 14.59C24.7745 14.8106 25.0823 15.0502 25.375 15.3075C26.3125 16.14 26.9675 17.0606 27.3225 18.0456C27.4514 18.4031 27.5417 18.7733 27.5919 19.15C27.617 19.3501 27.6295 19.5515 27.6294 19.7531C27.6288 21.6731 26.4913 23.515 24.4263 24.9375ZM28.7763 17.1925C28.3307 16.1125 27.6163 15.1119 26.6469 14.21C26.9098 14.0713 27.2028 13.9992 27.5 14C27.9899 14.003 28.4585 14.2002 28.8031 14.5483C29.1477 14.8964 29.3402 15.367 29.3382 15.8569C29.3377 16.1058 29.2878 16.3522 29.1914 16.5817C29.0949 16.8112 28.9538 17.0192 28.7763 17.1938V17.1925Z" fill="white"/>
<path d="M20.2019 22.6391C20.1862 22.6547 18.6044 24.2685 16.005 24.281C13.38 24.2685 11.8625 22.7041 11.7981 22.6391C11.7496 22.5911 11.6842 22.5641 11.6159 22.5641C11.5477 22.5641 11.4822 22.5911 11.4337 22.6391L10.5775 23.481C10.5532 23.5051 10.5339 23.5338 10.5208 23.5654C10.5076 23.597 10.5009 23.6308 10.5009 23.6651C10.5009 23.6993 10.5076 23.7332 10.5208 23.7647C10.5339 23.7963 10.5532 23.825 10.5775 23.8491C10.79 24.0616 12.7462 25.9885 16.0012 26.0022C19.2475 25.9885 21.2125 24.0616 21.425 23.8491C21.4493 23.825 21.4686 23.7962 21.4817 23.7646C21.4949 23.7329 21.5017 23.699 21.5017 23.6647C21.5017 23.6305 21.4949 23.5965 21.4817 23.5649C21.4686 23.5333 21.4493 23.5045 21.425 23.4804L20.5681 22.6385C20.5198 22.5907 20.4545 22.5638 20.3865 22.5638C20.3186 22.5638 20.2533 22.5907 20.205 22.6385L20.2019 22.6391Z" fill="white"/>
</svg>
