<svg width="22" height="22" viewBox="0 0 22 22" fill="none" xmlns="http://www.w3.org/2000/svg">
<g id="search-outline">
<path id="Vector" d="M9.76814 3.42499C8.49381 3.42499 7.24809 3.80287 6.18853 4.51085C5.12896 5.21884 4.30312 6.22512 3.81545 7.40245C3.32779 8.57978 3.20019 9.87528 3.4488 11.1251C3.69741 12.375 4.31106 13.523 5.21215 14.4241C6.11324 15.3252 7.2613 15.9389 8.51115 16.1875C9.761 16.4361 11.0565 16.3085 12.2338 15.8208C13.4112 15.3332 14.4174 14.5073 15.1254 13.4478C15.8334 12.3882 16.2113 11.1425 16.2113 9.86813C16.2112 8.15934 15.5323 6.52056 14.324 5.31226C13.1157 4.10396 11.4769 3.4251 9.76814 3.42499Z" stroke="#54545E" stroke-width="2" stroke-miterlimit="10"/>
<path id="Vector_2" d="M15.82 15.92L19.18 19.28" stroke="#B9B9B9" stroke-width="2" stroke-miterlimit="10" stroke-linecap="round"/>
</g>
</svg>
