<svg width="16" height="15" viewBox="0 0 16 15" fill="none" xmlns="http://www.w3.org/2000/svg">
<g id="Group">
<path id="Vector" d="M13.0781 1.60808H15.2169C15.3804 1.60808 15.5166 1.73977 15.5166 1.90779V4.26458C15.5166 5.38622 15.1942 6.4125 14.6674 7.17539C14.2451 7.78389 13.6957 8.22437 13.069 8.41509C13.0781 8.30157 13.0826 8.19258 13.0826 8.07906V7.77935C13.5004 7.60225 13.8773 7.27075 14.1816 6.83481C14.6402 6.17182 14.9263 5.26361 14.9263 4.26458V2.20295H13.0781V1.60808Z" fill="url(#paint0_linear_1_981)"/>
<path id="Vector_2" d="M2.39313 2.33005H0.594876V4.38714C0.594876 5.37709 0.871879 6.27621 1.32598 6.93921C1.62115 7.3706 1.98443 7.69756 2.39313 7.88374V8.07446C2.39313 8.22432 2.39767 8.37871 2.41129 8.52403C1.79825 8.32422 1.25333 7.8792 0.840092 7.27524C0.317873 6.51689 0 5.4997 0 4.38714V2.03035C0 1.86687 0.13169 1.73064 0.299708 1.73064H2.39313V2.33005Z" fill="url(#paint1_linear_1_981)"/>
<g id="Group 31387" filter="url(#filter0_i_1_981)">
<path id="Vector_3" d="M2.98819 0.5H12.4835C12.647 0.5 12.7832 0.63169 12.7832 0.799708V8.07899C12.7832 13.7507 2.69302 14.5545 2.69302 8.07899V0.799708C2.69302 0.63169 2.82471 0.5 2.98819 0.5Z" fill="url(#paint2_linear_1_981)"/>
<path id="Vector_4" d="M10.1857 12.5837V14.5H5.24054V12.7608C6.22594 13.1558 7.33396 13.2557 8.37385 13.1104C8.99598 13.0241 9.60902 12.847 10.1857 12.5837Z" fill="#FEB4B8"/>
</g>
</g>
<defs>
<filter id="filter0_i_1_981" x="2.69302" y="0.5" width="10.0902" height="14.1135" filterUnits="userSpaceOnUse" color-interpolation-filters="sRGB">
<feFlood flood-opacity="0" result="BackgroundImageFix"/>
<feBlend mode="normal" in="SourceGraphic" in2="BackgroundImageFix" result="shape"/>
<feColorMatrix in="SourceAlpha" type="matrix" values="0 0 0 0 0 0 0 0 0 0 0 0 0 0 0 0 0 0 127 0" result="hardAlpha"/>
<feOffset dy="0.113526"/>
<feGaussianBlur stdDeviation="0.170289"/>
<feComposite in2="hardAlpha" operator="arithmetic" k2="-1" k3="1"/>
<feColorMatrix type="matrix" values="0 0 0 0 0.295295 0 0 0 0 0.443914 0 0 0 0 0.970833 0 0 0 0.84 0"/>
<feBlend mode="normal" in2="shape" result="effect1_innerShadow_1_981"/>
</filter>
<linearGradient id="paint0_linear_1_981" x1="12.9649" y1="2.39004" x2="16.5435" y2="2.97997" gradientUnits="userSpaceOnUse">
<stop stop-color="#F00917"/>
<stop offset="1" stop-color="#F00917"/>
</linearGradient>
<linearGradient id="paint1_linear_1_981" x1="-0.10251" y1="2.51103" x2="3.4253" y2="3.08512" gradientUnits="userSpaceOnUse">
<stop stop-color="#F00917"/>
<stop offset="1" stop-color="#F00917"/>
</linearGradient>
<linearGradient id="paint2_linear_1_981" x1="2.26406" y1="1.89449" x2="15.4957" y2="6.93688" gradientUnits="userSpaceOnUse">
<stop stop-color="#F00917"/>
<stop offset="1" stop-color="#F00917"/>
</linearGradient>
</defs>
</svg>
