<svg width="32" height="32" viewBox="0 0 32 32" fill="none" xmlns="http://www.w3.org/2000/svg">
<path fill-rule="evenodd" clip-rule="evenodd" d="M25.9206 6.06869C24.6263 4.77373 23.0886 3.74757 21.3961 3.04929C19.7036 2.351 17.8896 1.99437 16.0588 1.99994C8.375 1.99994 2.12 8.22369 2.11687 15.8749C2.11348 18.3113 2.75568 20.705 3.97813 22.8124L2 29.9999L9.39062 28.0706C11.4364 29.1788 13.7265 29.7589 16.0531 29.7581H16.0588C23.7419 29.7581 29.9963 23.5337 30 15.8831C30.0047 14.0584 29.6464 12.2511 28.9461 10.5662C28.2457 8.88125 27.2173 7.35244 25.9206 6.06869ZM16.0588 27.4162H16.0537C13.9796 27.4168 11.9432 26.8617 10.1562 25.8087L9.73312 25.5587L5.3475 26.7037L6.51813 22.4481L6.2425 22.0106C5.08274 20.1744 4.46828 18.0467 4.47062 15.8749C4.47062 9.51682 9.67125 4.34369 16.0631 4.34369C19.1294 4.33822 22.0722 5.5509 24.2444 7.71502C26.4166 9.87913 27.6403 12.8174 27.6462 15.8837C27.6437 22.2424 22.4456 27.4162 16.0588 27.4162ZM22.4144 18.7793C22.0662 18.6056 20.3519 17.7668 20.0344 17.6512C19.7169 17.5356 19.4825 17.4774 19.2506 17.8249C19.0188 18.1724 18.3506 18.9499 18.1475 19.1843C17.9444 19.4187 17.7413 19.4443 17.3931 19.2706C17.045 19.0968 15.9219 18.7312 14.5913 17.5499C13.5556 16.6306 12.8569 15.4956 12.6538 15.1487C12.4506 14.8018 12.6319 14.6137 12.8062 14.4412C12.9631 14.2856 13.1544 14.0362 13.3287 13.8337C13.5031 13.6312 13.5612 13.4862 13.6769 13.2549C13.7925 13.0237 13.735 12.8212 13.6481 12.6481C13.5612 12.4749 12.8644 10.7681 12.5744 10.0737C12.2913 9.39744 12.0044 9.48932 11.7906 9.47869C11.5875 9.46869 11.3531 9.46619 11.1225 9.46619C10.9462 9.47078 10.7727 9.51167 10.6129 9.5863C10.4531 9.66093 10.3104 9.7677 10.1938 9.89994C9.87438 10.2474 8.97437 11.0874 8.97437 12.7924C8.97437 14.4974 10.2244 16.1474 10.3969 16.3787C10.5694 16.6099 12.8531 20.1118 16.3475 21.6137C16.9964 21.8916 17.6594 22.1352 18.3337 22.3437C19.1681 22.6074 19.9275 22.5706 20.5275 22.4812C21.1969 22.3818 22.59 21.6424 22.8794 20.8324C23.1688 20.0224 23.1694 19.3287 23.0825 19.1843C22.9956 19.0399 22.7631 18.9524 22.4144 18.7793Z" fill="white"/>
</svg>
